<?xml version="1.0" encoding="UTF-8"?>
<svg id="Layer_2" data-name="Layer 2" xmlns="http://www.w3.org/2000/svg" viewBox="0 0 100 100">
  <defs>
    <style>
      .cls-1 {
        fill: #dd1717;
      }
    </style>
  </defs>
  <g id="Layer_9" data-name="Layer 9">
    <rect width="100" height="100" rx="14.1" ry="14.1"/>
    <path class="cls-1" d="m23.78,22.78h14.23s.03.01.03.03v31.68s.04.04.06.02l26.65-31.63s0-.04,0-.05l-6.94-4.9s-.02-.05.01-.06l22.59-5.34s.04,0,.04.03l.72,23.4s-.03.04-.05.03l-6.71-5.31s-.03,0-.04,0l-49.47,56.63c-.26.3-.75.12-.75-.28l-.4-64.23s.01-.03.03-.03Z"/>
  </g>
</svg>