<?xml version="1.0" encoding="UTF-8"?>
<svg id="Layer_2" data-name="Layer 2" xmlns="http://www.w3.org/2000/svg" viewBox="0 0 100 100">
  <defs>
    <style>
      .cls-1 {
        fill: #f29b9b;
      }

      .cls-2, .cls-3, .cls-4 {
        fill: none;
        stroke: #fff;
        stroke-miterlimit: 10;
      }

      .cls-3, .cls-4 {
        stroke-linecap: round;
      }

      .cls-4 {
        stroke-width: .75px;
      }
    </style>
  </defs>
  <g id="capybara_avatar">
    <rect class="cls-1" width="100" height="100"/>
    <path class="cls-2" d="m39.77,18.8s-1.28-3.88-2.37-3.45-2.93,4.12-3.41,6.77-2.27,4.35-3.88,4.59-4.24,1.82-4.18,5.4"/>
    <path class="cls-3" d="m54.02,21.12s3.83-.62,5.11.66c0,0,1.61-4.5,3.6-3.69s.71,8.42.71,8.57c0,0,1.74.75,2.22,5.45,0,0,9.01,10.19,12.3,22.49"/>
    <path class="cls-3" d="m24.01,32.11h1.93s1.98,1.08-.33,3.3-3.77,13.16-3.77,13.16c0,0-1.32.94-2.55,3.49s-6.53,24.94-6.53,24.94"/>
    <path class="cls-3" d="m75.74,47.19s5.81-1.52,10.49,4.79-.4,24.81-.4,24.81"/>
    <path class="cls-2" d="m54.73,18.32c0,3.35-3.35,6.07-7.48,6.07s-7.48-2.72-7.48-6.07,3.35-6.03,7.48-6.03,7.48,2.67,7.48,6.03Z"/>
    <path class="cls-4" d="m46.45,13.24s.22.27.8.27.8-.27.8-.27"/>
    <path class="cls-3" d="m52.97,38.02c.85-.55,1.81.11,3-1.07,1.02-1.02.82-1.24,1.55-2.05.42-.46,1.74-1.08,1.74-1.08"/>
    <path class="cls-3" d="m21.86,52.33s1.72,4.31,6.32,4.31,10.12-2.7,10.12-2.7"/>
    <path class="cls-3" d="m29.1,72.09c-3.79-1.15-.92-15.04-.92-15.04"/>
    <path class="cls-3" d="m37.26,71.93c-1.86.9-4.95,2.59-7.7.59,0,0-1.84,1.41-3.62,0"/>
  </g>
</svg>