<?xml version="1.0" encoding="UTF-8"?>
<svg id="Layer_2" data-name="Layer 2" xmlns="http://www.w3.org/2000/svg" viewBox="0 0 100 100">
  <defs>
    <style>
      .cls-1 {
        fill: #fff;
      }

      .cls-2 {
        stroke: #fff;
      }

      .cls-2, .cls-3 {
        fill: none;
        stroke-linecap: round;
        stroke-miterlimit: 10;
      }

      .cls-4 {
        fill: #00c26f;
      }

      .cls-3 {
        stroke: #00c26f;
      }
    </style>
  </defs>
  <g id="panda_avatar">
    <rect class="cls-4" width="100" height="100"/>
    <path class="cls-1" d="m71.48,36.93c-.11-.31.04-.64.33-.79,2.02-.99,7.55-2.6,10.67,4.47,3.19,7.25-3.45,9.82-5.53,10.44-.33.1-.68-.08-.79-.41l-4.67-13.71Z"/>
    <path class="cls-1" d="m46.68,47.16c-1.5-1.14-4.43-.09-7.07,2.26-1.65,1.47-3.39,2.99-4.23,4.37-.62,1.01.15,2.31,1.33,2.29,2.31-.06,6.43-.47,8.77-2.51,2.5-2.18,2.9-5.1,1.19-6.4Zm-2.83,4.83c-.77,0-1.33-.59-1.53-1.33-.27-1,.65-1.82,1.8-1.5.74.21,1.39.62,1.39,1.39s-.89,1.44-1.66,1.44Z"/>
    <path class="cls-1" d="m63.36,56.83c-1.8-5.36-3.53-5.66-3.53-5.66,0,0-1.04-.6-1.42,1.35-.38,1.94-1.1,2.32-1.45,2.69-.33.36-.61,1.22,2.41,4.92.28.35.48.75.56,1.19.26,1.45,1.03,4.8,2.62,4.25,2.03-.7,2.61-3.39.81-8.75Zm-3.39.78c-.75.17-1.75-.48-1.91-1.23-.17-.75.3-1.5,1.05-1.66.84-.18,2.16.42,2.19,1.25.02.77-.58,1.48-1.33,1.64Z"/>
    <path class="cls-1" d="m60.11,55.4c0-.21-.21-.43-.57-.43s-.67.23-.67.44.3.38.66.38.58-.18.58-.39Z"/>
    <path class="cls-1" d="m44.84,50.81c.17-.13.08-.47-.12-.74s-.57-.33-.74-.2-.06.35.15.62.54.45.71.32Z"/>
    <path class="cls-1" d="m43.63,65.65c-.16-.53.42-.97.89-.68.82.51,2.04,1.15,3.52,1.61,2.14.66,4.14.85,4.98.91.2.01.3.24.19.4-.56.79-2.18,2.48-5.49,1.68-2.63-.64-3.68-2.55-4.09-3.92Z"/>
    <path class="cls-2" d="m47.07,69.14s-.69,2.21-1.82,2.82c0,0-3.84,1.14-4.85-.24"/>
    <g>
      <path class="cls-2" d="m56.58,26.36s2.69-.69,2.84-2.05"/>
      <path class="cls-2" d="m58.76,27.06s1.99-.21,2.23-1.72"/>
    </g>
    <path class="cls-1" d="m32.24,35.97c-.44.29-1.01.22-1.37-.16-1.72-1.82-4.93-6.26,1.44-10.92,4.64-3.39,9.15.42,10.96,2.32.46.48.37,1.26-.19,1.62l-10.84,7.13Z"/>
    <path class="cls-2" d="m82.78,62.1c0,.98-.22,1.92-.65,2.77-.42.87-1.05,1.64-1.84,2.25-5.01,3.84-17.31,11.75-32.16,10.23-15.86-1.61-25.09-15.55-27.98-20.67-.67-1.19-.85-2.6-.51-3.94,5.09-19.92,20.83-25.39,29.97-26.93,6.5-1.09,14.17,1.62,18.05,4.34,6.99,4.91,15.12,14.32,15.12,31.95Z"/>
    <path class="cls-2" d="m45.34,71.91s1.77,2.38,4.92,1.89"/>
    <path class="cls-1" d="m88.26,81.9c-.22,1.54-1.34,2.8-2.81,3.32-5.26,1.87-19.86,6.29-41.85,6.89-18.96.52-27.81-7.66-31.54-13-1.79-2.56-2.38-5.74-1.77-8.8,2.44-12.05,9.18-15.64,9.18-15.64,0,0,7.27,17.44,24.13,21.86,0,0,9.3,3.17,23.34-1.91s15.38-10.19,15.38-10.19c0,0,7.6,6.02,5.94,17.46Z"/>
    <g>
      <path class="cls-3" d="m36.2,33.91s-2.6-.79-2.89-2.71"/>
      <path class="cls-3" d="m34.74,35.1s-1.89.23-2.69-1.77"/>
      <path class="cls-3" d="m37.42,32.55s-1.4-.4-1.37-2.07"/>
    </g>
    <g>
      <path class="cls-3" d="m72.41,39.93s2.7.64,3.47-.5"/>
      <path class="cls-3" d="m73.28,41.35s1.42,1.42,2.74.66"/>
    </g>
  </g>
</svg>