<?xml version="1.0" encoding="UTF-8"?>
<svg id="Layer_2" data-name="Layer 2" xmlns="http://www.w3.org/2000/svg" viewBox="0 0 100 100">
  <defs>
    <style>
      .cls-1 {
        fill: #fff;
      }

      .cls-2 {
        stroke-linejoin: round;
      }

      .cls-2, .cls-3 {
        stroke: #fff;
        stroke-linecap: round;
      }

      .cls-2, .cls-3, .cls-4 {
        fill: none;
      }

      .cls-3 {
        stroke-miterlimit: 10;
      }

      .cls-5 {
        fill: #f2884c;
      }
    </style>
  </defs>
  <g id="red_panda_avatar">
    <rect class="cls-5" width="100" height="100"/>
    <g>
      <path class="cls-3" d="m14.48,25.66c-6.73,2.27,1.18,16.63,1.18,16.63,0,0-4.63,9.91-4.45,13.81"/>
      <path class="cls-3" d="m86.49,55.64c-.24-4.67-3.05-7.88-3.05-7.88,0,0,8.53-20.31,4.06-21.66s-5.55.81-10.83.54-8.94,2.03-8.94,2.03c-7.99-3.66-15.7-4.47-23.83-4.6s-15.03,4.87-15.03,4.87c-.6-.19-7.68-5.55-14.41-3.28"/>
      <path class="cls-3" d="m80.98,54.98s1.88.3,3.15,3.15"/>
      <path class="cls-4" d="m83.1,52.8s2.65,2.19,2.34,4.73"/>
      <path class="cls-3" d="m83.83,54.03s1.39,1.55,1.39,2.66"/>
      <path class="cls-3" d="m79.35,57.87s1.39,1.55,1.39,2.66"/>
      <path class="cls-1" d="m45.7,58.51c.61.83,1.23,1.69,1.26,2.73.05,1.47-.79,3.31-5.25,3.31-5.98,0-4.25-4.62-4.25-4.62,0,0,1.55-3.54,4.4-3.62,1.83-.05,3.18,1.31,3.84,2.2Z"/>
      <path class="cls-3" d="m41.67,63.98v2.25s-3.18-.04-4.05,1.12-2.59.8-2.59.8"/>
      <path class="cls-3" d="m41.67,66.23s4.2.19,5.24,1.97,2.92.47,2.92.47"/>
      <path class="cls-3" d="m38.11,67.69s-.28,2.86,3.56,2.86,3.88-.6,4.84-2.16"/>
      <path class="cls-3" d="m13.69,67.01s1.82.53,2.82.24,14.02,7.45,17.92,6.32"/>
      <path class="cls-3" d="m16.5,52.11s-1.15,5.64-3.11,7.65"/>
      <path class="cls-3" d="m75.53,56.27s4.43,6.95,4.52,9.12"/>
      <path class="cls-3" d="m74.31,60.83s1.91,2.72,3.48,2.66"/>
      <path class="cls-3" d="m75.18,65.62c-1.56,2.07-15.59,10.9-22.71,7.73"/>
      <path id="option1" class="cls-3" d="m55.61,68.49c-.65,5.99-8.65,7.23-12.5,6.98-1.65-.1-12.6-.45-12.68-8.62-.12-13.22,12.61-13.28,12.61-13.28,0,0,14.19-.03,12.56,14.92Z"/>
      <path class="cls-1" d="m55.58,49.7c-1.18-.78-3.04-.83-3.72.18-.67,1.01-.18,2.75,1,3.54,1.18.78,3.03.61,3.7-.4s.2-2.53-.98-3.32Zm-.54,1.91c-.22.24-.97.23-1.29-.06-.32-.29-.18-1.07.05-1.3.31-.3.94-.13,1.26.16.32.29.19.96-.02,1.2Z"/>
      <path class="cls-1" d="m35.74,47.58c-1.43-.23-2.79.42-3.24,1.57-.55,1.42-.39,2.96,1.45,3.43,1.09.28,3.28-.55,3.64-1.93.31-1.22-.62-2.88-1.85-3.08Zm.31,2.1c-.14.3-.79.48-1.2.31-.41-.17-.42-.84-.29-1.13.14-.3.67-.45,1.08-.28.41.17.54.81.41,1.1Z"/>
      <path class="cls-1" d="m48.92,46.39c.3-1.75,1.09-3.39,1.66-4.39.35-.62,1.11-.87,1.77-.61,1.51.61,4.02,1.83,4.21,3.33.21,1.7-4.09,2.83-5.92,3.24-.5.11-1.01-.05-1.35-.42h0c-.28-.31-.43-.73-.36-1.14Z"/>
      <path class="cls-1" d="m40.21,45.58c.62-1.34.83-2.85.9-3.82.04-.6-.38-1.15-.98-1.29-1.37-.34-3.74-.74-4.59.19-.96,1.05,1.58,3.96,2.7,5.15.3.32.75.47,1.17.38h0c.35-.07.66-.28.8-.6Z"/>
      <path class="cls-3" d="m73.89,32.42s1.11-2.62,3.03-3.21c2.54-.77,7.05-.76,8.3,0,1.62.99-5.58,12.08-5.58,12.08"/>
      <path class="cls-3" d="m73.5,33.59s3.08-.18,3.61-1.19"/>
      <path class="cls-3" d="m73.89,35.26c.09-.04,2.69.31,3.22-.7"/>
      <path class="cls-3" d="m23.5,29.67c.04-.12-5.47-3.18-7.38-1.58s.82,9.01.82,9.01"/>
      <path class="cls-3" d="m23.68,32.54s-1.52-1.99-2.93-1.79"/>
      <path class="cls-3" d="m22.4,34.18s-.62-.98-1.4-.7"/>
      <path class="cls-2" d="m17.16,60.07s-1.59,3.2-5.37,3.67"/>
    </g>
  </g>
</svg>