<?xml version="1.0" encoding="UTF-8"?>
<svg id="Layer_2" data-name="Layer 2" xmlns="http://www.w3.org/2000/svg" viewBox="0 0 100 100">
  <defs>
    <style>
      .cls-1 {
        fill: #fff;
      }

      .cls-2 {
        fill: #23b7d9;
      }

      .cls-3 {
        fill: none;
        stroke: #fff;
        stroke-linecap: round;
        stroke-miterlimit: 10;
      }
    </style>
  </defs>
  <g id="penguin_avatar">
    <rect class="cls-2" width="100" height="100"/>
    <path class="cls-3" d="m8.16,88.12s3.61-11.74,9.29-16.89c0,0,.5-.88,1.06-3.17s-3.03-46.1,31.01-46.1c32,0,31.64,35.82,31.48,40.13-.01.31.02.61.09.9.28,1.09,1.05,3.78,2.33,5.22.74.83,6.51,11.66,7.51,17.17"/>
    <path class="cls-1" d="m76.44,60.13c0-.8-2.36-14.99-3.4-17.87s-4.95-3.16-6.3-1.88c-1.14,1.08-3.06,4.81-4.54,7.07-1.48,2.26-2.61,3.3-2.43,4.95.17,1.65,2,.09,1.65,4.43-.35,4.34-3.82,4.87-10.77,5.21-6.95.35-9.56-1.65-10.25-4.52-.7-2.87,2.09-3.74,2.52-5.13s-5.91-9.04-8.43-10.9c-2.52-1.87-6.43-.65-6.43-.65-2.29,1.4-2.16,5.11-2.16,5.11,0,0,.05,1.46-1.57,2.6-1.63,1.14-2.06,11.33-1.3,15.07.76,3.74,15.4,7.48,27.93,8.08,12.53.6,22.2-6.51,24.12-8.27,1.92-1.76,1.36-2.52,1.36-3.32Zm-41.91-5.85c-1.31.89-2.01.48-3.49-1.18-1.47-1.66-.68-2.97.02-3.34.75-.39,1.97-.4,3.3,1.64,1.33,2.03.17,2.89.17,2.89Zm34.9-.42c-1.4.72-2.34.75-3.61.14-.26-.12-.25-.53-.21-.78.14-.88.71-2.68,2.23-3.17,2.05-.67,2.48.63,2.48.63.27.63.18,2.63-.9,3.18Z"/>
    <path class="cls-3" d="m51.73,59.36c.28.07.57.03.83-.09.99-.46,3.7-1.78,3.9-2.59.25-1-1.92-3.65-4.26-3.56s-5.3,2.23-5.35,3.16c-.05.83,3.22,2.7,4.88,3.09Z"/>
    <path class="cls-1" d="m69.15,50.39s-1.49.04-1.43.75,1.29-.04,1.37-.07.4-.23.38-.45-.31-.23-.31-.23Z"/>
    <path class="cls-1" d="m32.79,51.37s.71,1.76,1.33,1.41-.62-1.57-.69-1.63-.38-.27-.57-.16-.08.38-.08.38Z"/>
  </g>
</svg>